<svg xmlns="http://www.w3.org/2000/svg" xmlns:xlink="http://www.w3.org/1999/xlink" viewBox="0,0,256,256" width="64px" height="64px" fill-rule="nonzero"><g transform=""><g fill-opacity="0" fill="#dddddd" fill-rule="nonzero" stroke="none" stroke-width="1" stroke-linecap="butt" stroke-linejoin="miter" stroke-miterlimit="10" stroke-dasharray="" stroke-dashoffset="0" font-family="none" font-weight="none" font-size="none" text-anchor="none" style="mix-blend-mode: normal"><path d="M0,256v-256h256v256z" id="bgRectangle"></path></g><g fill="#a3abb2" fill-rule="nonzero" stroke="none" stroke-width="1" stroke-linecap="butt" stroke-linejoin="miter" stroke-miterlimit="10" stroke-dasharray="" stroke-dashoffset="0" font-family="none" font-weight="none" font-size="none" text-anchor="none" style="mix-blend-mode: normal"><g transform="scale(4,4)"><path d="M55,10h-46c-2.209,0 -4,1.791 -4,4v34c0,2.209 1.791,4 4,4h46c2.209,0 4,-1.791 4,-4v-34c0,-2.209 -1.791,-4 -4,-4zM55,45.738c-0.046,1.262 -1.099,2.262 -2.382,2.262h-3.118l1.5,-27l-19,12l-19,-11l1.5,26h-3.118c-1.283,0 -2.336,-1 -2.382,-2.262v-29.449c0,-1.25 1.03,-2.263 2.3,-2.263h1.2l19.5,14.974l19.5,-14.974h1.2c1.27,0 2.3,1.013 2.3,2.263z"></path></g></g></g></svg>